<?xml version="1.0" encoding="UTF-8" standalone="no"?>
<svg width="341.489mm" height="478.014mm"
 viewBox="0 0 968 1355"
 xmlns="http://www.w3.org/2000/svg" xmlns:xlink="http://www.w3.org/1999/xlink"  version="1.2" baseProfile="tiny">
<title>Qt SVG Document</title>
<desc>Generated with Qt</desc>
<defs>
</defs>
<g fill="none" stroke="black" stroke-width="1" fill-rule="evenodd" stroke-linecap="square" stroke-linejoin="bevel" >

<g fill="#ffffff" fill-opacity="1" stroke="none" transform="matrix(1,0,0,1,0,0)"
font-family="Sans Serif" font-size="9" font-weight="400" font-style="normal" 
>
<rect x="0" y="0" width="968" height="1355"/>
</g>

<g fill="none" stroke="#000000" stroke-opacity="1" stroke-width="1" stroke-linecap="round" stroke-linejoin="round" transform="matrix(1,0,0,1,0,0)"
font-family="Sans Serif" font-size="9" font-weight="400" font-style="normal" 
>
<polyline fill="none" vector-effect="non-scaling-stroke" points="259,1117 942,1117 " />
<polyline fill="none" vector-effect="non-scaling-stroke" points="942,1117 942,434 " />
<polyline fill="none" vector-effect="non-scaling-stroke" points="942,434 259,434 " />
<polyline fill="none" vector-effect="non-scaling-stroke" points="259,434 259,1117 " />
<polyline fill="none" vector-effect="non-scaling-stroke" points="942,1117 942,1321 " />
<polyline fill="none" vector-effect="non-scaling-stroke" points="942,1321 24,1321 " />
<polyline fill="none" vector-effect="non-scaling-stroke" points="24,1321 24,179 " />
<polyline fill="none" vector-effect="non-scaling-stroke" points="24,179 96,179 " />
<polyline fill="none" vector-effect="non-scaling-stroke" points="96,179 259,434 " />
<polyline fill="none" vector-effect="non-scaling-stroke" points="282,1094 919,1094 " />
<polyline fill="none" vector-effect="non-scaling-stroke" points="919,1094 919,457 " />
<polyline fill="none" vector-effect="non-scaling-stroke" points="919,457 282,457 " />
<polyline fill="none" vector-effect="non-scaling-stroke" points="282,457 282,1094 " />
<polyline fill="none" vector-effect="non-scaling-stroke" points="487,54 563,54 " />
<polyline fill="none" vector-effect="non-scaling-stroke" points="563,54 525,35 " />
<polyline fill="none" vector-effect="non-scaling-stroke" points="525,35 525,73 " />
<polyline fill="none" vector-effect="non-scaling-stroke" points="525,73 563,54 " />
<polyline fill="none" vector-effect="non-scaling-stroke" points="582,73 582,35 " />
<polyline fill="none" vector-effect="non-scaling-stroke" points="582,35 603,73 " />
<polyline fill="none" vector-effect="non-scaling-stroke" points="603,73 603,35 " />
<polyline fill="none" vector-effect="non-scaling-stroke" points="817,1117 895,1117 " />
<polyline fill="none" vector-effect="non-scaling-stroke" points="895,1117 895,1094 " />
<polyline fill="none" vector-effect="non-scaling-stroke" points="895,1094 817,1094 " />
<polyline fill="none" vector-effect="non-scaling-stroke" points="817,1094 817,1117 " />
<polyline fill="none" vector-effect="non-scaling-stroke" points="652,1111 771,1111 " />
<polyline fill="none" vector-effect="non-scaling-stroke" points="771,1111 771,1100 " />
<polyline fill="none" vector-effect="non-scaling-stroke" points="771,1100 652,1100 " />
<polyline fill="none" vector-effect="non-scaling-stroke" points="652,1100 652,1111 " />
<polyline fill="none" vector-effect="non-scaling-stroke" points="492,1111 604,1111 " />
<polyline fill="none" vector-effect="non-scaling-stroke" points="604,1111 604,1100 " />
<polyline fill="none" vector-effect="non-scaling-stroke" points="604,1100 492,1100 " />
<polyline fill="none" vector-effect="non-scaling-stroke" points="492,1100 492,1111 " />
<polyline fill="none" vector-effect="non-scaling-stroke" points="268,1117 273,1117 " />
<polyline fill="none" vector-effect="non-scaling-stroke" points="273,1117 273,1123 " />
<polyline fill="none" vector-effect="non-scaling-stroke" points="273,1123 268,1123 " />
<polyline fill="none" vector-effect="non-scaling-stroke" points="268,1123 268,1117 " />
<polyline fill="none" vector-effect="non-scaling-stroke" points="265,460 276,460 " />
<polyline fill="none" vector-effect="non-scaling-stroke" points="276,460 276,527 " />
<polyline fill="none" vector-effect="non-scaling-stroke" points="276,527 265,527 " />
<polyline fill="none" vector-effect="non-scaling-stroke" points="265,527 265,460 " />
<polyline fill="none" vector-effect="non-scaling-stroke" points="259,542 282,542 " />
<polyline fill="none" vector-effect="non-scaling-stroke" points="282,542 282,687 " />
<polyline fill="none" vector-effect="non-scaling-stroke" points="282,687 259,687 " />
<polyline fill="none" vector-effect="non-scaling-stroke" points="259,687 259,542 " />
<polyline fill="none" vector-effect="non-scaling-stroke" points="853,1108 855,1108 " />
<polyline fill="none" vector-effect="non-scaling-stroke" points="855,1108 855,1108 855,1108 856,1107 " />
<polyline fill="none" vector-effect="non-scaling-stroke" points="856,1107 856,1105 " />
<polyline fill="none" vector-effect="non-scaling-stroke" points="856,1105 855,1105 855,1104 855,1104 " />
<polyline fill="none" vector-effect="non-scaling-stroke" points="855,1104 853,1104 " />
<polyline fill="none" vector-effect="non-scaling-stroke" points="853,1104 853,1108 " />
<polyline fill="none" vector-effect="non-scaling-stroke" points="857,1107 857,1108 857,1108 858,1108 858,1108 858,1108 858,1107 " />
<polyline fill="none" vector-effect="non-scaling-stroke" points="857,1107 857,1106 " />
<polyline fill="none" vector-effect="non-scaling-stroke" points="858,1106 858,1106 858,1106 858,1105 857,1106 857,1106 857,1106 " />
<polyline fill="none" vector-effect="non-scaling-stroke" points="858,1106 858,1107 " />
<polyline fill="none" vector-effect="non-scaling-stroke" points="860,1107 860,1108 860,1108 861,1108 861,1108 861,1108 861,1107 " />
<polyline fill="none" vector-effect="non-scaling-stroke" points="860,1107 860,1106 " />
<polyline fill="none" vector-effect="non-scaling-stroke" points="861,1106 861,1106 861,1106 861,1105 860,1106 860,1106 860,1106 " />
<polyline fill="none" vector-effect="non-scaling-stroke" points="861,1106 861,1107 " />
<polyline fill="none" vector-effect="non-scaling-stroke" points="863,1108 863,1105 " />
<polyline fill="none" vector-effect="non-scaling-stroke" points="863,1105 864,1105 " />
<polyline fill="none" vector-effect="non-scaling-stroke" points="864,1105 864,1106 " />
</g>

<g fill="#000000" fill-opacity="1" stroke="none" transform="matrix(1,0,0,1,0,0)"
font-family="Sans Serif" font-size="9" font-weight="400" font-style="normal" 
>
<circle cx="265" cy="1130" r="0.5"/>
</g>

<g fill="none" stroke="#000000" stroke-opacity="1" stroke-width="1" stroke-linecap="round" stroke-linejoin="round" transform="matrix(1,0,0,1,0,0)"
font-family="Sans Serif" font-size="9" font-weight="400" font-style="normal" 
>
<polyline fill="none" vector-effect="non-scaling-stroke" points="265,1130 265,1132 " />
<polyline fill="none" vector-effect="non-scaling-stroke" points="265,1132 264,1132 " />
<polyline fill="none" vector-effect="non-scaling-stroke" points="263,1131 263,1132 263,1132 264,1132 " />
<polyline fill="none" vector-effect="non-scaling-stroke" points="263,1131 263,1129 " />
<polyline fill="none" vector-effect="non-scaling-stroke" points="264,1128 263,1128 263,1129 263,1129 " />
<polyline fill="none" vector-effect="non-scaling-stroke" points="264,1128 265,1128 " />
<polyline fill="none" vector-effect="non-scaling-stroke" points="266,1130 266,1132 " />
<polyline fill="none" vector-effect="non-scaling-stroke" points="266,1132 267,1132 267,1132 267,1132 " />
<polyline fill="none" vector-effect="non-scaling-stroke" points="267,1132 268,1132 " />
<polyline fill="none" vector-effect="non-scaling-stroke" points="268,1132 268,1130 " />
<polyline fill="none" vector-effect="non-scaling-stroke" points="270,1132 270,1128 " />
<polyline fill="none" vector-effect="non-scaling-stroke" points="269,1130 271,1130 " />
<polyline fill="none" vector-effect="non-scaling-stroke" points="272,1132 272,1128 " />
<polyline fill="none" vector-effect="non-scaling-stroke" points="272,1130 273,1130 " />
<polyline fill="none" vector-effect="non-scaling-stroke" points="276,1132 275,1132 " />
<polyline fill="none" vector-effect="non-scaling-stroke" points="274,1132 275,1132 275,1132 275,1132 " />
<polyline fill="none" vector-effect="non-scaling-stroke" points="274,1132 274,1130 " />
<polyline fill="none" vector-effect="non-scaling-stroke" points="276,1130 276,1130 276,1130 275,1130 275,1130 275,1130 274,1130 " />
<polyline fill="none" vector-effect="non-scaling-stroke" points="276,1130 276,1131 " />
<polyline fill="none" vector-effect="non-scaling-stroke" points="276,1131 274,1131 " />
<polyline fill="none" vector-effect="non-scaling-stroke" points="277,1132 277,1130 " />
<polyline fill="none" vector-effect="non-scaling-stroke" points="277,1130 279,1130 " />
</g>

<g fill="#000000" fill-opacity="1" stroke="none" transform="matrix(1,0,0,1,0,0)"
font-family="Sans Serif" font-size="9" font-weight="400" font-style="normal" 
>
<circle cx="279" cy="1130" r="0.5"/>
</g>

<g fill="none" stroke="#000000" stroke-opacity="1" stroke-width="1" stroke-linecap="round" stroke-linejoin="round" transform="matrix(1,0,0,1,0,0)"
font-family="Sans Serif" font-size="9" font-weight="400" font-style="normal" 
>
<polyline fill="none" vector-effect="non-scaling-stroke" points="539,1103 540,1107 " />
<polyline fill="none" vector-effect="non-scaling-stroke" points="540,1107 541,1105 " />
<polyline fill="none" vector-effect="non-scaling-stroke" points="541,1105 542,1107 " />
<polyline fill="none" vector-effect="non-scaling-stroke" points="542,1107 543,1103 " />
<polyline fill="none" vector-effect="non-scaling-stroke" points="544,1107 544,1105 " />
</g>

<g fill="#000000" fill-opacity="1" stroke="none" transform="matrix(1,0,0,1,0,0)"
font-family="Sans Serif" font-size="9" font-weight="400" font-style="normal" 
>
<circle cx="544" cy="1103" r="0.5"/>
</g>

<g fill="none" stroke="#000000" stroke-opacity="1" stroke-width="1" stroke-linecap="round" stroke-linejoin="round" transform="matrix(1,0,0,1,0,0)"
font-family="Sans Serif" font-size="9" font-weight="400" font-style="normal" 
>
<polyline fill="none" vector-effect="non-scaling-stroke" points="545,1107 545,1105 " />
<polyline fill="none" vector-effect="non-scaling-stroke" points="545,1105 546,1105 " />
<polyline fill="none" vector-effect="non-scaling-stroke" points="547,1105 547,1105 547,1105 546,1105 " />
<polyline fill="none" vector-effect="non-scaling-stroke" points="547,1105 547,1107 " />
<polyline fill="none" vector-effect="non-scaling-stroke" points="550,1103 550,1107 " />
<polyline fill="none" vector-effect="non-scaling-stroke" points="550,1107 549,1107 " />
<polyline fill="none" vector-effect="non-scaling-stroke" points="548,1106 548,1107 548,1107 549,1107 " />
<polyline fill="none" vector-effect="non-scaling-stroke" points="548,1106 548,1105 " />
<polyline fill="none" vector-effect="non-scaling-stroke" points="549,1105 548,1105 548,1105 548,1105 " />
<polyline fill="none" vector-effect="non-scaling-stroke" points="549,1105 550,1105 " />
<polyline fill="none" vector-effect="non-scaling-stroke" points="551,1106 551,1107 551,1107 552,1107 552,1107 553,1107 553,1106 " />
<polyline fill="none" vector-effect="non-scaling-stroke" points="551,1106 551,1105 " />
<polyline fill="none" vector-effect="non-scaling-stroke" points="553,1105 553,1105 552,1105 552,1105 552,1105 551,1105 551,1105 " />
<polyline fill="none" vector-effect="non-scaling-stroke" points="553,1105 553,1106 " />
<polyline fill="none" vector-effect="non-scaling-stroke" points="554,1105 555,1107 " />
<polyline fill="none" vector-effect="non-scaling-stroke" points="555,1107 555,1105 " />
<polyline fill="none" vector-effect="non-scaling-stroke" points="555,1105 556,1107 " />
<polyline fill="none" vector-effect="non-scaling-stroke" points="556,1107 557,1105 " />
<polyline fill="none" vector-effect="non-scaling-stroke" points="705,1103 706,1107 " />
<polyline fill="none" vector-effect="non-scaling-stroke" points="706,1107 707,1105 " />
<polyline fill="none" vector-effect="non-scaling-stroke" points="707,1105 707,1107 " />
<polyline fill="none" vector-effect="non-scaling-stroke" points="707,1107 708,1103 " />
<polyline fill="none" vector-effect="non-scaling-stroke" points="709,1107 709,1105 " />
</g>

<g fill="#000000" fill-opacity="1" stroke="none" transform="matrix(1,0,0,1,0,0)"
font-family="Sans Serif" font-size="9" font-weight="400" font-style="normal" 
>
<circle cx="709" cy="1103" r="0.5"/>
</g>

<g fill="none" stroke="#000000" stroke-opacity="1" stroke-width="1" stroke-linecap="round" stroke-linejoin="round" transform="matrix(1,0,0,1,0,0)"
font-family="Sans Serif" font-size="9" font-weight="400" font-style="normal" 
>
<polyline fill="none" vector-effect="non-scaling-stroke" points="711,1107 711,1105 " />
<polyline fill="none" vector-effect="non-scaling-stroke" points="711,1105 712,1105 " />
<polyline fill="none" vector-effect="non-scaling-stroke" points="712,1105 712,1105 712,1105 712,1105 " />
<polyline fill="none" vector-effect="non-scaling-stroke" points="712,1105 712,1107 " />
<polyline fill="none" vector-effect="non-scaling-stroke" points="715,1103 715,1107 " />
<polyline fill="none" vector-effect="non-scaling-stroke" points="715,1107 714,1107 " />
<polyline fill="none" vector-effect="non-scaling-stroke" points="714,1106 714,1107 714,1107 714,1107 " />
<polyline fill="none" vector-effect="non-scaling-stroke" points="714,1106 714,1105 " />
<polyline fill="none" vector-effect="non-scaling-stroke" points="714,1105 714,1105 714,1105 714,1105 " />
<polyline fill="none" vector-effect="non-scaling-stroke" points="714,1105 715,1105 " />
<polyline fill="none" vector-effect="non-scaling-stroke" points="717,1106 717,1107 717,1107 717,1107 718,1107 718,1107 718,1106 " />
<polyline fill="none" vector-effect="non-scaling-stroke" points="717,1106 717,1105 " />
<polyline fill="none" vector-effect="non-scaling-stroke" points="718,1105 718,1105 718,1105 718,1105 717,1105 717,1105 717,1105 " />
<polyline fill="none" vector-effect="non-scaling-stroke" points="718,1105 718,1106 " />
<polyline fill="none" vector-effect="non-scaling-stroke" points="720,1105 720,1107 " />
<polyline fill="none" vector-effect="non-scaling-stroke" points="720,1107 721,1105 " />
<polyline fill="none" vector-effect="non-scaling-stroke" points="721,1105 722,1107 " />
<polyline fill="none" vector-effect="non-scaling-stroke" points="722,1107 722,1105 " />
<polyline fill="none" vector-effect="non-scaling-stroke" points="269,501 272,501 " />
<polyline fill="none" vector-effect="non-scaling-stroke" points="272,501 270,500 " />
<polyline fill="none" vector-effect="non-scaling-stroke" points="270,500 272,499 " />
<polyline fill="none" vector-effect="non-scaling-stroke" points="272,499 269,498 " />
<polyline fill="none" vector-effect="non-scaling-stroke" points="272,497 270,497 " />
</g>

<g fill="#000000" fill-opacity="1" stroke="none" transform="matrix(1,0,0,1,0,0)"
font-family="Sans Serif" font-size="9" font-weight="400" font-style="normal" 
>
<circle cx="269" cy="497" r="0.5"/>
</g>

<g fill="none" stroke="#000000" stroke-opacity="1" stroke-width="1" stroke-linecap="round" stroke-linejoin="round" transform="matrix(1,0,0,1,0,0)"
font-family="Sans Serif" font-size="9" font-weight="400" font-style="normal" 
>
<polyline fill="none" vector-effect="non-scaling-stroke" points="272,495 270,495 " />
<polyline fill="none" vector-effect="non-scaling-stroke" points="270,495 270,494 " />
<polyline fill="none" vector-effect="non-scaling-stroke" points="270,494 270,494 270,494 270,494 " />
<polyline fill="none" vector-effect="non-scaling-stroke" points="270,494 272,494 " />
<polyline fill="none" vector-effect="non-scaling-stroke" points="269,491 272,491 " />
<polyline fill="none" vector-effect="non-scaling-stroke" points="272,491 272,492 " />
<polyline fill="none" vector-effect="non-scaling-stroke" points="272,493 272,492 272,492 272,492 " />
<polyline fill="none" vector-effect="non-scaling-stroke" points="272,493 270,493 " />
<polyline fill="none" vector-effect="non-scaling-stroke" points="270,492 270,492 270,492 270,493 " />
<polyline fill="none" vector-effect="non-scaling-stroke" points="270,492 270,491 " />
<polyline fill="none" vector-effect="non-scaling-stroke" points="271,490 272,489 272,489 272,489 272,488 272,488 272,488 271,488 " />
</g>

<g fill="#000000" fill-opacity="1" stroke="none" transform="matrix(1,0,0,1,0,0)"
font-family="Sans Serif" font-size="9" font-weight="400" font-style="normal" 
>
<circle cx="271" cy="490" r="0.5"/>
</g>

<g fill="none" stroke="#000000" stroke-opacity="1" stroke-width="1" stroke-linecap="round" stroke-linejoin="round" transform="matrix(1,0,0,1,0,0)"
font-family="Sans Serif" font-size="9" font-weight="400" font-style="normal" 
>
<polyline fill="none" vector-effect="non-scaling-stroke" points="271,488 270,488 270,488 270,489 270,489 270,489 271,490 " />
</g>

<g fill="#000000" fill-opacity="1" stroke="none" transform="matrix(1,0,0,1,0,0)"
font-family="Sans Serif" font-size="9" font-weight="400" font-style="normal" 
>
<circle cx="271" cy="488" r="0.5"/>
</g>

<g fill="none" stroke="#000000" stroke-opacity="1" stroke-width="1" stroke-linecap="round" stroke-linejoin="round" transform="matrix(1,0,0,1,0,0)"
font-family="Sans Serif" font-size="9" font-weight="400" font-style="normal" 
>
<polyline fill="none" vector-effect="non-scaling-stroke" points="270,487 272,486 " />
<polyline fill="none" vector-effect="non-scaling-stroke" points="272,486 271,485 " />
<polyline fill="none" vector-effect="non-scaling-stroke" points="271,485 272,485 " />
<polyline fill="none" vector-effect="non-scaling-stroke" points="272,485 270,484 " />
<polyline fill="none" vector-effect="non-scaling-stroke" points="273,621 273,620 " />
<polyline fill="none" vector-effect="non-scaling-stroke" points="273,620 273,619 272,619 272,619 " />
<polyline fill="none" vector-effect="non-scaling-stroke" points="272,619 270,619 " />
<polyline fill="none" vector-effect="non-scaling-stroke" points="270,619 269,619 269,619 269,620 " />
<polyline fill="none" vector-effect="non-scaling-stroke" points="269,620 269,621 " />
<polyline fill="none" vector-effect="non-scaling-stroke" points="269,621 273,621 " />
<polyline fill="none" vector-effect="non-scaling-stroke" points="272,618 272,618 273,617 273,617 273,617 272,616 272,616 " />
<polyline fill="none" vector-effect="non-scaling-stroke" points="272,618 271,618 " />
<polyline fill="none" vector-effect="non-scaling-stroke" points="271,616 271,616 270,616 270,617 270,617 271,618 271,618 " />
<polyline fill="none" vector-effect="non-scaling-stroke" points="271,616 272,616 " />
<polyline fill="none" vector-effect="non-scaling-stroke" points="272,615 272,615 273,614 273,614 273,614 272,613 272,613 " />
<polyline fill="none" vector-effect="non-scaling-stroke" points="272,615 271,615 " />
<polyline fill="none" vector-effect="non-scaling-stroke" points="271,613 271,613 270,614 270,614 270,614 271,615 271,615 " />
<polyline fill="none" vector-effect="non-scaling-stroke" points="271,613 272,613 " />
<polyline fill="none" vector-effect="non-scaling-stroke" points="273,612 270,612 " />
<polyline fill="none" vector-effect="non-scaling-stroke" points="270,612 270,611 " />
<polyline fill="none" vector-effect="non-scaling-stroke" points="270,611 271,611 " />
<polyline fill="none" vector-effect="non-scaling-stroke" points="269,608 269,609 " />
<polyline fill="none" vector-effect="non-scaling-stroke" points="270,608 270,608 269,608 269,608 269,608 " />
<polyline fill="none" vector-effect="non-scaling-stroke" points="270,608 271,608 " />
</g>

<g fill="#000000" fill-opacity="1" stroke="none" transform="matrix(1,0,0,1,0,0)"
font-family="Sans Serif" font-size="9" font-weight="400" font-style="normal" 
>
<circle cx="271" cy="608" r="0.5"/>
</g>

<g fill="none" stroke="#000000" stroke-opacity="1" stroke-width="1" stroke-linecap="round" stroke-linejoin="round" transform="matrix(1,0,0,1,0,0)"
font-family="Sans Serif" font-size="9" font-weight="400" font-style="normal" 
>
</g>

<g fill="#000000" fill-opacity="1" stroke="none" transform="matrix(1,0,0,1,0,0)"
font-family="Sans Serif" font-size="9" font-weight="400" font-style="normal" 
>
<circle cx="271" cy="609" r="0.5"/>
</g>

<g fill="none" stroke="#000000" stroke-opacity="1" stroke-width="1" stroke-linecap="round" stroke-linejoin="round" transform="matrix(1,0,0,1,0,0)"
font-family="Sans Serif" font-size="9" font-weight="400" font-style="normal" 
>
</g>

<g fill="#000000" fill-opacity="1" stroke="none" transform="matrix(1,0,0,1,0,0)"
font-family="Sans Serif" font-size="9" font-weight="400" font-style="normal" 
>
<circle cx="273" cy="609" r="0.5"/>
</g>

<g fill="none" stroke="#000000" stroke-opacity="1" stroke-width="1" stroke-linecap="round" stroke-linejoin="round" transform="matrix(1,0,0,1,0,0)"
font-family="Sans Serif" font-size="9" font-weight="400" font-style="normal" 
>
<polyline fill="none" vector-effect="non-scaling-stroke" points="925,1045 936,1045 " />
<polyline fill="none" vector-effect="non-scaling-stroke" points="936,1045 936,931 " />
<polyline fill="none" vector-effect="non-scaling-stroke" points="936,931 925,931 " />
<polyline fill="none" vector-effect="non-scaling-stroke" points="925,931 925,1045 " />
<polyline fill="none" vector-effect="non-scaling-stroke" points="929,996 933,995 " />
<polyline fill="none" vector-effect="non-scaling-stroke" points="933,995 930,994 " />
<polyline fill="none" vector-effect="non-scaling-stroke" points="930,994 933,993 " />
<polyline fill="none" vector-effect="non-scaling-stroke" points="933,993 929,992 " />
<polyline fill="none" vector-effect="non-scaling-stroke" points="933,991 930,991 " />
</g>

<g fill="#000000" fill-opacity="1" stroke="none" transform="matrix(1,0,0,1,0,0)"
font-family="Sans Serif" font-size="9" font-weight="400" font-style="normal" 
>
<circle cx="929" cy="991" r="0.5"/>
</g>

<g fill="none" stroke="#000000" stroke-opacity="1" stroke-width="1" stroke-linecap="round" stroke-linejoin="round" transform="matrix(1,0,0,1,0,0)"
font-family="Sans Serif" font-size="9" font-weight="400" font-style="normal" 
>
<polyline fill="none" vector-effect="non-scaling-stroke" points="933,990 930,990 " />
<polyline fill="none" vector-effect="non-scaling-stroke" points="930,990 930,989 " />
<polyline fill="none" vector-effect="non-scaling-stroke" points="931,988 930,988 930,988 930,989 " />
<polyline fill="none" vector-effect="non-scaling-stroke" points="931,988 933,988 " />
<polyline fill="none" vector-effect="non-scaling-stroke" points="929,985 933,985 " />
<polyline fill="none" vector-effect="non-scaling-stroke" points="933,985 933,986 " />
<polyline fill="none" vector-effect="non-scaling-stroke" points="932,987 932,987 933,987 933,986 " />
<polyline fill="none" vector-effect="non-scaling-stroke" points="932,987 931,987 " />
<polyline fill="none" vector-effect="non-scaling-stroke" points="930,986 930,986 930,987 931,987 " />
<polyline fill="none" vector-effect="non-scaling-stroke" points="930,986 930,985 " />
<polyline fill="none" vector-effect="non-scaling-stroke" points="932,984 932,984 933,983 933,983 933,983 932,982 932,982 " />
<polyline fill="none" vector-effect="non-scaling-stroke" points="932,984 931,984 " />
<polyline fill="none" vector-effect="non-scaling-stroke" points="931,982 931,982 930,983 930,983 930,983 930,984 931,984 " />
<polyline fill="none" vector-effect="non-scaling-stroke" points="931,982 932,982 " />
<polyline fill="none" vector-effect="non-scaling-stroke" points="930,981 933,980 " />
<polyline fill="none" vector-effect="non-scaling-stroke" points="933,980 931,980 " />
<polyline fill="none" vector-effect="non-scaling-stroke" points="931,980 933,979 " />
<polyline fill="none" vector-effect="non-scaling-stroke" points="933,979 930,978 " />
<polyline fill="none" vector-effect="non-scaling-stroke" points="224,100 237,100 " />
<polyline fill="none" vector-effect="non-scaling-stroke" points="230,100 230,123 " />
<polyline fill="none" vector-effect="non-scaling-stroke" points="244,123 244,100 " />
<polyline fill="none" vector-effect="non-scaling-stroke" points="244,107 250,107 " />
<polyline fill="none" vector-effect="non-scaling-stroke" points="254,111 254,109 253,108 251,107 250,107 " />
<polyline fill="none" vector-effect="non-scaling-stroke" points="254,111 254,123 " />
<polyline fill="none" vector-effect="non-scaling-stroke" points="262,123 262,107 " />
<polyline fill="none" vector-effect="non-scaling-stroke" points="262,101 262,100 " />
<polyline fill="none" vector-effect="non-scaling-stroke" points="269,121 271,122 273,122 275,123 276,123 " />
<polyline fill="none" vector-effect="non-scaling-stroke" points="276,123 278,122 279,121 280,120 279,118 278,117 " />
<polyline fill="none" vector-effect="non-scaling-stroke" points="278,117 271,113 " />
<polyline fill="none" vector-effect="non-scaling-stroke" points="273,107 271,108 270,109 269,110 270,112 271,113 " />
<polyline fill="none" vector-effect="non-scaling-stroke" points="278,109 276,108 274,108 273,107 " />
<polyline fill="none" vector-effect="non-scaling-stroke" points="314,100 314,123 " />
<polyline fill="none" vector-effect="non-scaling-stroke" points="314,123 308,123 " />
<polyline fill="none" vector-effect="non-scaling-stroke" points="304,119 305,121 306,122 308,123 " />
<polyline fill="none" vector-effect="non-scaling-stroke" points="304,119 304,111 " />
<polyline fill="none" vector-effect="non-scaling-stroke" points="308,107 306,108 305,109 304,111 " />
<polyline fill="none" vector-effect="non-scaling-stroke" points="308,107 314,107 " />
<polyline fill="none" vector-effect="non-scaling-stroke" points="322,123 322,107 " />
<polyline fill="none" vector-effect="non-scaling-stroke" points="322,107 330,107 " />
<polyline fill="none" vector-effect="non-scaling-stroke" points="330,107 330,110 " />
<polyline fill="none" vector-effect="non-scaling-stroke" points="338,107 343,107 " />
<polyline fill="none" vector-effect="non-scaling-stroke" points="347,111 347,109 345,108 344,107 343,107 " />
<polyline fill="none" vector-effect="non-scaling-stroke" points="347,111 347,123 " />
<polyline fill="none" vector-effect="non-scaling-stroke" points="347,123 341,123 " />
<polyline fill="none" vector-effect="non-scaling-stroke" points="341,115 339,115 338,117 337,119 337,120 339,122 340,123 341,123 " />
<polyline fill="none" vector-effect="non-scaling-stroke" points="341,115 347,115 " />
<polyline fill="none" vector-effect="non-scaling-stroke" points="355,107 359,123 " />
<polyline fill="none" vector-effect="non-scaling-stroke" points="359,123 362,112 " />
<polyline fill="none" vector-effect="non-scaling-stroke" points="362,112 366,123 " />
<polyline fill="none" vector-effect="non-scaling-stroke" points="366,123 370,107 " />
<polyline fill="none" vector-effect="non-scaling-stroke" points="378,123 378,107 " />
<polyline fill="none" vector-effect="non-scaling-stroke" points="378,101 378,100 " />
<polyline fill="none" vector-effect="non-scaling-stroke" points="385,123 385,107 " />
<polyline fill="none" vector-effect="non-scaling-stroke" points="385,107 392,107 " />
<polyline fill="none" vector-effect="non-scaling-stroke" points="395,111 395,109 394,108 392,107 " />
<polyline fill="none" vector-effect="non-scaling-stroke" points="395,111 395,123 " />
<polyline fill="none" vector-effect="non-scaling-stroke" points="404,130 409,130 " />
<polyline fill="none" vector-effect="non-scaling-stroke" points="409,130 411,130 412,128 413,127 413,126 " />
<polyline fill="none" vector-effect="non-scaling-stroke" points="413,126 413,107 " />
<polyline fill="none" vector-effect="non-scaling-stroke" points="413,107 407,107 " />
<polyline fill="none" vector-effect="non-scaling-stroke" points="407,107 405,108 404,109 403,111 " />
<polyline fill="none" vector-effect="non-scaling-stroke" points="403,111 403,119 " />
<polyline fill="none" vector-effect="non-scaling-stroke" points="403,119 403,121 405,122 406,123 407,123 " />
<polyline fill="none" vector-effect="non-scaling-stroke" points="407,123 413,123 " />
<polyline fill="none" vector-effect="non-scaling-stroke" points="438,107 438,119 " />
<polyline fill="none" vector-effect="non-scaling-stroke" points="438,119 438,121 439,122 441,123 " />
<polyline fill="none" vector-effect="non-scaling-stroke" points="441,123 448,123 " />
<polyline fill="none" vector-effect="non-scaling-stroke" points="448,123 448,107 " />
<polyline fill="none" vector-effect="non-scaling-stroke" points="455,121 457,122 459,122 461,123 462,123 " />
<polyline fill="none" vector-effect="non-scaling-stroke" points="462,123 464,122 465,121 466,120 465,118 464,117 " />
<polyline fill="none" vector-effect="non-scaling-stroke" points="464,117 457,113 " />
<polyline fill="none" vector-effect="non-scaling-stroke" points="459,107 457,108 456,109 455,110 456,112 457,113 " />
<polyline fill="none" vector-effect="non-scaling-stroke" points="464,109 462,108 460,108 459,107 " />
<polyline fill="none" vector-effect="non-scaling-stroke" points="483,123 477,123 " />
<polyline fill="none" vector-effect="non-scaling-stroke" points="473,119 474,121 475,122 477,123 " />
<polyline fill="none" vector-effect="non-scaling-stroke" points="473,119 473,112 " />
<polyline fill="none" vector-effect="non-scaling-stroke" points="483,112 483,111 482,109 480,108 478,107 476,108 475,109 473,111 473,112 " />
<polyline fill="none" vector-effect="non-scaling-stroke" points="483,112 483,115 " />
<polyline fill="none" vector-effect="non-scaling-stroke" points="483,115 473,115 " />
<polyline fill="none" vector-effect="non-scaling-stroke" points="491,121 493,122 495,122 497,123 498,123 " />
<polyline fill="none" vector-effect="non-scaling-stroke" points="498,123 499,122 500,121 501,120 501,118 500,117 499,117 " />
<polyline fill="none" vector-effect="non-scaling-stroke" points="499,117 493,113 " />
<polyline fill="none" vector-effect="non-scaling-stroke" points="494,107 492,108 491,109 491,110 491,112 492,113 493,113 " />
<polyline fill="none" vector-effect="non-scaling-stroke" points="500,109 498,108 496,108 494,107 " />
<polyline fill="none" vector-effect="non-scaling-stroke" points="526,123 526,107 " />
<polyline fill="none" vector-effect="non-scaling-stroke" points="526,101 526,100 " />
<polyline fill="none" vector-effect="non-scaling-stroke" points="533,123 533,107 " />
<polyline fill="none" vector-effect="non-scaling-stroke" points="533,107 540,107 " />
<polyline fill="none" vector-effect="non-scaling-stroke" points="543,111 543,109 542,108 540,107 " />
<polyline fill="none" vector-effect="non-scaling-stroke" points="543,111 543,123 " />
<polyline fill="none" vector-effect="non-scaling-stroke" points="559,107 555,107 " />
<polyline fill="none" vector-effect="non-scaling-stroke" points="555,107 553,108 552,109 551,111 " />
<polyline fill="none" vector-effect="non-scaling-stroke" points="551,111 551,119 " />
<polyline fill="none" vector-effect="non-scaling-stroke" points="551,119 551,121 553,122 554,123 555,123 " />
<polyline fill="none" vector-effect="non-scaling-stroke" points="555,123 559,123 " />
<polyline fill="none" vector-effect="non-scaling-stroke" points="566,123 566,100 " />
<polyline fill="none" vector-effect="non-scaling-stroke" points="566,107 572,107 " />
<polyline fill="none" vector-effect="non-scaling-stroke" points="576,111 576,109 574,108 573,107 572,107 " />
<polyline fill="none" vector-effect="non-scaling-stroke" points="576,111 576,123 " />
<polyline fill="none" vector-effect="non-scaling-stroke" points="594,123 588,123 " />
<polyline fill="none" vector-effect="non-scaling-stroke" points="584,119 584,121 586,122 587,123 588,123 " />
<polyline fill="none" vector-effect="non-scaling-stroke" points="584,119 584,112 " />
<polyline fill="none" vector-effect="non-scaling-stroke" points="594,112 594,111 592,109 591,108 589,107 587,108 585,109 584,111 584,112 " />
<polyline fill="none" vector-effect="non-scaling-stroke" points="594,112 594,115 " />
<polyline fill="none" vector-effect="non-scaling-stroke" points="594,115 584,115 " />
<polyline fill="none" vector-effect="non-scaling-stroke" points="602,121 603,122 605,122 607,123 608,123 " />
<polyline fill="none" vector-effect="non-scaling-stroke" points="608,123 610,122 611,121 612,120 611,118 610,117 " />
<polyline fill="none" vector-effect="non-scaling-stroke" points="610,117 603,113 " />
<polyline fill="none" vector-effect="non-scaling-stroke" points="605,107 603,108 602,109 602,110 602,112 603,113 " />
<polyline fill="none" vector-effect="non-scaling-stroke" points="610,109 609,108 607,108 605,107 " />
<polyline fill="none" vector-effect="non-scaling-stroke" points="639,123 639,104 " />
<polyline fill="none" vector-effect="non-scaling-stroke" points="643,100 641,100 639,102 639,103 639,104 " />
<polyline fill="none" vector-effect="non-scaling-stroke" points="643,100 644,100 " />
<polyline fill="none" vector-effect="non-scaling-stroke" points="636,107 644,107 " />
<polyline fill="none" vector-effect="non-scaling-stroke" points="652,118 652,120 653,121 655,122 657,123 659,122 660,121 661,119 662,118 " />
<polyline fill="none" vector-effect="non-scaling-stroke" points="652,118 652,112 " />
<polyline fill="none" vector-effect="non-scaling-stroke" points="662,112 661,111 660,109 658,108 657,107 655,108 653,109 652,111 652,112 " />
<polyline fill="none" vector-effect="non-scaling-stroke" points="662,112 662,118 " />
<polyline fill="none" vector-effect="non-scaling-stroke" points="669,123 669,107 " />
<polyline fill="none" vector-effect="non-scaling-stroke" points="669,107 677,107 " />
<polyline fill="none" vector-effect="non-scaling-stroke" points="677,107 677,110 " />
<polyline fill="none" vector-effect="non-scaling-stroke" points="709,123 709,107 " />
<polyline fill="none" vector-effect="non-scaling-stroke" points="701,123 701,107 " />
<polyline fill="none" vector-effect="non-scaling-stroke" points="701,107 713,107 " />
<polyline fill="none" vector-effect="non-scaling-stroke" points="717,111 716,109 715,108 713,107 " />
<polyline fill="none" vector-effect="non-scaling-stroke" points="717,111 717,123 " />
<polyline fill="none" vector-effect="non-scaling-stroke" points="734,123 728,123 " />
<polyline fill="none" vector-effect="non-scaling-stroke" points="724,119 725,121 726,122 728,123 " />
<polyline fill="none" vector-effect="non-scaling-stroke" points="724,119 724,112 " />
<polyline fill="none" vector-effect="non-scaling-stroke" points="734,112 734,111 733,109 731,108 729,107 727,108 726,109 725,111 724,112 " />
<polyline fill="none" vector-effect="non-scaling-stroke" points="734,112 734,115 " />
<polyline fill="none" vector-effect="non-scaling-stroke" points="734,115 724,115 " />
<polyline fill="none" vector-effect="non-scaling-stroke" points="743,107 748,107 " />
<polyline fill="none" vector-effect="non-scaling-stroke" points="752,111 752,109 750,108 749,107 748,107 " />
<polyline fill="none" vector-effect="non-scaling-stroke" points="752,111 752,123 " />
<polyline fill="none" vector-effect="non-scaling-stroke" points="752,123 746,123 " />
<polyline fill="none" vector-effect="non-scaling-stroke" points="746,115 744,115 743,117 742,119 742,120 743,122 745,123 746,123 " />
<polyline fill="none" vector-effect="non-scaling-stroke" points="746,115 752,115 " />
<polyline fill="none" vector-effect="non-scaling-stroke" points="760,121 762,122 764,122 766,123 767,123 " />
<polyline fill="none" vector-effect="non-scaling-stroke" points="767,123 768,122 769,121 770,120 770,118 769,117 768,117 " />
<polyline fill="none" vector-effect="non-scaling-stroke" points="768,117 761,113 " />
<polyline fill="none" vector-effect="non-scaling-stroke" points="763,107 761,108 760,109 760,110 760,112 761,113 " />
<polyline fill="none" vector-effect="non-scaling-stroke" points="769,109 767,108 765,108 763,107 " />
<polyline fill="none" vector-effect="non-scaling-stroke" points="777,107 777,119 " />
<polyline fill="none" vector-effect="non-scaling-stroke" points="777,119 778,121 779,122 781,123 " />
<polyline fill="none" vector-effect="non-scaling-stroke" points="781,123 788,123 " />
<polyline fill="none" vector-effect="non-scaling-stroke" points="788,123 788,107 " />
<polyline fill="none" vector-effect="non-scaling-stroke" points="795,123 795,107 " />
<polyline fill="none" vector-effect="non-scaling-stroke" points="795,107 803,107 " />
<polyline fill="none" vector-effect="non-scaling-stroke" points="803,107 803,110 " />
<polyline fill="none" vector-effect="non-scaling-stroke" points="820,123 814,123 " />
<polyline fill="none" vector-effect="non-scaling-stroke" points="810,119 811,121 812,122 814,123 " />
<polyline fill="none" vector-effect="non-scaling-stroke" points="810,119 810,112 " />
<polyline fill="none" vector-effect="non-scaling-stroke" points="820,112 820,111 819,109 817,108 815,107 813,108 812,109 811,111 810,112 " />
<polyline fill="none" vector-effect="non-scaling-stroke" points="820,112 820,115 " />
<polyline fill="none" vector-effect="non-scaling-stroke" points="820,115 810,115 " />
<polyline fill="none" vector-effect="non-scaling-stroke" points="836,123 836,107 " />
<polyline fill="none" vector-effect="non-scaling-stroke" points="828,123 828,107 " />
<polyline fill="none" vector-effect="non-scaling-stroke" points="828,107 839,107 " />
<polyline fill="none" vector-effect="non-scaling-stroke" points="843,111 843,109 841,108 840,107 839,107 " />
<polyline fill="none" vector-effect="non-scaling-stroke" points="843,111 843,123 " />
<polyline fill="none" vector-effect="non-scaling-stroke" points="861,123 855,123 " />
<polyline fill="none" vector-effect="non-scaling-stroke" points="851,119 851,121 853,122 854,123 855,123 " />
<polyline fill="none" vector-effect="non-scaling-stroke" points="851,119 851,112 " />
<polyline fill="none" vector-effect="non-scaling-stroke" points="861,112 860,111 859,109 858,108 856,107 854,108 852,109 851,111 851,112 " />
<polyline fill="none" vector-effect="non-scaling-stroke" points="861,112 861,115 " />
<polyline fill="none" vector-effect="non-scaling-stroke" points="861,115 851,115 " />
<polyline fill="none" vector-effect="non-scaling-stroke" points="868,123 868,107 " />
<polyline fill="none" vector-effect="non-scaling-stroke" points="868,107 875,107 " />
<polyline fill="none" vector-effect="non-scaling-stroke" points="879,111 878,109 877,108 875,107 " />
<polyline fill="none" vector-effect="non-scaling-stroke" points="879,111 879,123 " />
<polyline fill="none" vector-effect="non-scaling-stroke" points="889,123 889,100 " />
<polyline fill="none" vector-effect="non-scaling-stroke" points="886,107 894,107 " />
<polyline fill="none" vector-effect="non-scaling-stroke" points="901,123 901,121 " />
<polyline fill="none" vector-effect="non-scaling-stroke" points="817,1117 817,1195 " />
<polyline fill="none" vector-effect="non-scaling-stroke" points="817,1195 819,1195 821,1195 823,1195 825,1194 827,1194 829,1194 831,1194 833,1193 835,1193 837,1192 839,1192 841,1191 842,1191 844,1190 846,1189 848,1188 850,1187 852,1187 853,1186 855,1185 857,1184 859,1183 860,1182 862,1180 864,1179 865,1178 867,1177 868,1176 870,1174 871,1173 873,1171 874,1170 875,1168 877,1167 878,1165 879,1164 880,1162 881,1161 882,1159 884,1157 885,1155 886,1154 886,1152 887,1150 888,1148 889,1146 890,1145 890,1143 891,1141 892,1139 892,1137 893,1135 893,1133 893,1131 894,1129 894,1127 894,1125 894,1123 895,1121 895,1119 895,1117 " />
</g>
</g>
</svg>
