<?xml version="1.0" encoding="UTF-8" standalone="no"?>
<svg width="362.656mm" height="478.014mm"
 viewBox="0 0 1028 1355"
 xmlns="http://www.w3.org/2000/svg" xmlns:xlink="http://www.w3.org/1999/xlink"  version="1.2" baseProfile="tiny">
<title>Qt SVG Document</title>
<desc>Generated with Qt</desc>
<defs>
</defs>
<g fill="none" stroke="black" stroke-width="1" fill-rule="evenodd" stroke-linecap="square" stroke-linejoin="bevel" >

<g fill="#000000" fill-opacity="1" stroke="none" transform="matrix(1,0,0,1,0,0)"
font-family="Sans Serif" font-size="9" font-weight="400" font-style="normal" 
>
<rect x="0" y="0" width="1028" height="1355"/>
</g>

<g fill="none" stroke="#ffffff" stroke-opacity="1" stroke-width="1" stroke-linecap="round" stroke-linejoin="round" transform="matrix(1,0,0,1,0,0)"
font-family="Sans Serif" font-size="9" font-weight="400" font-style="normal" 
>
<polyline fill="none" vector-effect="non-scaling-stroke" points="318,1118 1003,1118 " />
<polyline fill="none" vector-effect="non-scaling-stroke" points="1003,1118 1003,433 " />
<polyline fill="none" vector-effect="non-scaling-stroke" points="1003,433 318,433 " />
<polyline fill="none" vector-effect="non-scaling-stroke" points="318,433 318,1118 " />
<polyline fill="none" vector-effect="non-scaling-stroke" points="1003,1118 1003,1323 " />
<polyline fill="none" vector-effect="non-scaling-stroke" points="1003,1323 83,1323 " />
<polyline fill="none" vector-effect="non-scaling-stroke" points="83,1323 83,177 " />
<polyline fill="none" vector-effect="non-scaling-stroke" points="83,177 154,177 " />
<polyline fill="none" vector-effect="non-scaling-stroke" points="154,177 318,433 " />
<polyline fill="none" vector-effect="non-scaling-stroke" points="341,1095 980,1095 " />
<polyline fill="none" vector-effect="non-scaling-stroke" points="980,1095 980,456 " />
<polyline fill="none" vector-effect="non-scaling-stroke" points="980,456 341,456 " />
<polyline fill="none" vector-effect="non-scaling-stroke" points="341,456 341,1095 " />
<polyline fill="none" vector-effect="non-scaling-stroke" points="546,52 622,52 " />
<polyline fill="none" vector-effect="non-scaling-stroke" points="622,52 584,33 " />
<polyline fill="none" vector-effect="non-scaling-stroke" points="584,33 584,72 " />
<polyline fill="none" vector-effect="non-scaling-stroke" points="584,72 622,52 " />
<polyline fill="none" vector-effect="non-scaling-stroke" points="641,72 641,33 " />
<polyline fill="none" vector-effect="non-scaling-stroke" points="641,33 663,72 " />
<polyline fill="none" vector-effect="non-scaling-stroke" points="663,72 663,33 " />
<polyline fill="none" vector-effect="non-scaling-stroke" points="54,177 54,1323 " />
</g>

<g fill="#ffffff" fill-opacity="1" stroke="#ffffff" stroke-opacity="1" stroke-width="1" stroke-linecap="round" stroke-linejoin="round" transform="matrix(1,0,0,1,0,0)"
font-family="Sans Serif" font-size="9" font-weight="400" font-style="normal" 
>
<path vector-effect="non-scaling-stroke" fill-rule="evenodd" d="M54,177"/>
</g>

<g fill="#ffffff" fill-opacity="1" stroke="#ffffff" stroke-opacity="1" stroke-width="1" stroke-linecap="round" stroke-linejoin="round" transform="matrix(1,0,0,1,0,0)"
font-family="Sans Serif" font-size="9" font-weight="400" font-style="normal" 
>
<path vector-effect="non-scaling-stroke" fill-rule="evenodd" d="M54,1323 L54,1322 L54,1323"/>
</g>

<g fill="none" stroke="#ffffff" stroke-opacity="1" stroke-width="1" stroke-linecap="round" stroke-linejoin="round" transform="matrix(1,0,0,1,0,0)"
font-family="Sans Serif" font-size="9" font-weight="400" font-style="normal" 
>
</g>

<g fill="#ffffff" fill-opacity="1" stroke="none" transform="matrix(1,0,0,1,0,0)"
font-family="Sans Serif" font-size="9" font-weight="400" font-style="normal" 
>
<circle cx="54" cy="750" r="0.5"/>
</g>

<g fill="none" stroke="#ffffff" stroke-opacity="1" stroke-width="1" stroke-linecap="round" stroke-linejoin="round" transform="matrix(1,0,0,1,0,0)"
font-family="Sans Serif" font-size="9" font-weight="400" font-style="normal" 
>
</g>

<g fill="#ffffff" fill-opacity="1" stroke="none" transform="matrix(1,0,0,1,0,0)"
font-family="Sans Serif" font-size="9" font-weight="400" font-style="normal" 
>
<circle cx="54" cy="750" r="0.5"/>
</g>

<g fill="none" stroke="#ffffff" stroke-opacity="1" stroke-width="1" stroke-linecap="round" stroke-linejoin="round" transform="matrix(1,0,0,1,0,0)"
font-family="Sans Serif" font-size="9" font-weight="400" font-style="normal" 
>
</g>

<g fill="#ffffff" fill-opacity="1" stroke="none" transform="matrix(1,0,0,1,0,0)"
font-family="Sans Serif" font-size="9" font-weight="400" font-style="normal" 
>
<circle cx="54" cy="750" r="0.5"/>
</g>

<g fill="none" stroke="#ffffff" stroke-opacity="1" stroke-width="1" stroke-linecap="round" stroke-linejoin="round" transform="matrix(1,0,0,1,0,0)"
font-family="Sans Serif" font-size="9" font-weight="400" font-style="normal" 
>
</g>

<g fill="#ffffff" fill-opacity="1" stroke="none" transform="matrix(1,0,0,1,0,0)"
font-family="Sans Serif" font-size="9" font-weight="400" font-style="normal" 
>
<circle cx="54" cy="750" r="0.5"/>
</g>

<g fill="none" stroke="#ffffff" stroke-opacity="1" stroke-width="1" stroke-linecap="round" stroke-linejoin="round" transform="matrix(1,0,0,1,0,0)"
font-family="Sans Serif" font-size="9" font-weight="400" font-style="normal" 
>
</g>

<g fill="#ffffff" fill-opacity="1" stroke="none" transform="matrix(1,0,0,1,0,0)"
font-family="Sans Serif" font-size="9" font-weight="400" font-style="normal" 
>
<circle cx="54" cy="750" r="0.5"/>
</g>

<g fill="none" stroke="#ffffff" stroke-opacity="1" stroke-width="1" stroke-linecap="round" stroke-linejoin="round" transform="matrix(1,0,0,1,0,0)"
font-family="Sans Serif" font-size="9" font-weight="400" font-style="normal" 
>
</g>

<g fill="#ffffff" fill-opacity="1" stroke="none" transform="matrix(1,0,0,1,0,0)"
font-family="Sans Serif" font-size="9" font-weight="400" font-style="normal" 
>
<circle cx="54" cy="750" r="0.5"/>
</g>

<g fill="none" stroke="#ffffff" stroke-opacity="1" stroke-width="1" stroke-linecap="round" stroke-linejoin="round" transform="matrix(1,0,0,1,0,0)"
font-family="Sans Serif" font-size="9" font-weight="400" font-style="normal" 
>
</g>

<g fill="#ffffff" fill-opacity="1" stroke="none" transform="matrix(1,0,0,1,0,0)"
font-family="Sans Serif" font-size="9" font-weight="400" font-style="normal" 
>
<circle cx="54" cy="750" r="0.5"/>
</g>

<g fill="none" stroke="#ffffff" stroke-opacity="1" stroke-width="1" stroke-linecap="round" stroke-linejoin="round" transform="matrix(1,0,0,1,0,0)"
font-family="Sans Serif" font-size="9" font-weight="400" font-style="normal" 
>
</g>

<g fill="#ffffff" fill-opacity="1" stroke="none" transform="matrix(1,0,0,1,0,0)"
font-family="Sans Serif" font-size="9" font-weight="400" font-style="normal" 
>
<circle cx="54" cy="750" r="0.5"/>
</g>

<g fill="none" stroke="#ffffff" stroke-opacity="1" stroke-width="1" stroke-linecap="round" stroke-linejoin="round" transform="matrix(1,0,0,1,0,0)"
font-family="Sans Serif" font-size="9" font-weight="400" font-style="normal" 
>
</g>

<g fill="#ffffff" fill-opacity="1" stroke="none" transform="matrix(1,0,0,1,0,0)"
font-family="Sans Serif" font-size="9" font-weight="400" font-style="normal" 
>
<circle cx="54" cy="750" r="0.5"/>
</g>

<g fill="none" stroke="#ffffff" stroke-opacity="1" stroke-width="1" stroke-linecap="round" stroke-linejoin="round" transform="matrix(1,0,0,1,0,0)"
font-family="Sans Serif" font-size="9" font-weight="400" font-style="normal" 
>
</g>

<g fill="#ffffff" fill-opacity="1" stroke="none" transform="matrix(1,0,0,1,0,0)"
font-family="Sans Serif" font-size="9" font-weight="400" font-style="normal" 
>
<circle cx="54" cy="750" r="0.5"/>
</g>

<g fill="none" stroke="#ffffff" stroke-opacity="1" stroke-width="1" stroke-linecap="round" stroke-linejoin="round" transform="matrix(1,0,0,1,0,0)"
font-family="Sans Serif" font-size="9" font-weight="400" font-style="normal" 
>
</g>

<g fill="#ffffff" fill-opacity="1" stroke="none" transform="matrix(1,0,0,1,0,0)"
font-family="Sans Serif" font-size="9" font-weight="400" font-style="normal" 
>
<circle cx="54" cy="750" r="0.5"/>
</g>

<g fill="none" stroke="#ffffff" stroke-opacity="1" stroke-width="1" stroke-linecap="round" stroke-linejoin="round" transform="matrix(1,0,0,1,0,0)"
font-family="Sans Serif" font-size="9" font-weight="400" font-style="normal" 
>
</g>

<g fill="#ffffff" fill-opacity="1" stroke="none" transform="matrix(1,0,0,1,0,0)"
font-family="Sans Serif" font-size="9" font-weight="400" font-style="normal" 
>
<circle cx="54" cy="750" r="0.5"/>
</g>

<g fill="none" stroke="#ffffff" stroke-opacity="1" stroke-width="1" stroke-linecap="round" stroke-linejoin="round" transform="matrix(1,0,0,1,0,0)"
font-family="Sans Serif" font-size="9" font-weight="400" font-style="normal" 
>
</g>

<g fill="#ffffff" fill-opacity="1" stroke="none" transform="matrix(1,0,0,1,0,0)"
font-family="Sans Serif" font-size="9" font-weight="400" font-style="normal" 
>
<circle cx="54" cy="750" r="0.5"/>
</g>

<g fill="none" stroke="#ffffff" stroke-opacity="1" stroke-width="1" stroke-linecap="round" stroke-linejoin="round" transform="matrix(1,0,0,1,0,0)"
font-family="Sans Serif" font-size="9" font-weight="400" font-style="normal" 
>
</g>

<g fill="#ffffff" fill-opacity="1" stroke="none" transform="matrix(1,0,0,1,0,0)"
font-family="Sans Serif" font-size="9" font-weight="400" font-style="normal" 
>
<circle cx="54" cy="750" r="0.5"/>
</g>

<g fill="none" stroke="#ffffff" stroke-opacity="1" stroke-width="1" stroke-linecap="round" stroke-linejoin="round" transform="matrix(1,0,0,1,0,0)"
font-family="Sans Serif" font-size="9" font-weight="400" font-style="normal" 
>
</g>

<g fill="#ffffff" fill-opacity="1" stroke="none" transform="matrix(1,0,0,1,0,0)"
font-family="Sans Serif" font-size="9" font-weight="400" font-style="normal" 
>
<circle cx="54" cy="750" r="0.5"/>
</g>

<g fill="none" stroke="#ffffff" stroke-opacity="1" stroke-width="1" stroke-linecap="round" stroke-linejoin="round" transform="matrix(1,0,0,1,0,0)"
font-family="Sans Serif" font-size="9" font-weight="400" font-style="normal" 
>
<polyline fill="none" vector-effect="non-scaling-stroke" points="73,177 54,177 " />
<polyline fill="none" vector-effect="non-scaling-stroke" points="73,1323 54,1323 " />
<polyline fill="none" vector-effect="non-scaling-stroke" points="32,766 32,763 " />
<polyline fill="none" vector-effect="non-scaling-stroke" points="35,759 34,760 32,761 32,763 " />
<polyline fill="none" vector-effect="non-scaling-stroke" points="35,759 37,759 " />
<polyline fill="none" vector-effect="non-scaling-stroke" points="37,766 38,766 40,765 40,763 40,761 39,760 37,759 " />
<polyline fill="none" vector-effect="non-scaling-stroke" points="37,766 32,766 " />
<polyline fill="none" vector-effect="non-scaling-stroke" points="25,761 26,763 27,764 29,766 31,766 32,766 " />
<polyline fill="none" vector-effect="non-scaling-stroke" points="28,754 25,751 " />
<polyline fill="none" vector-effect="non-scaling-stroke" points="25,751 40,751 " />
<polyline fill="none" vector-effect="non-scaling-stroke" points="37,739 35,739 " />
<polyline fill="none" vector-effect="non-scaling-stroke" points="35,739 34,740 32,741 32,742 32,744 33,745 35,746 " />
<polyline fill="none" vector-effect="non-scaling-stroke" points="35,746 37,746 " />
<polyline fill="none" vector-effect="non-scaling-stroke" points="37,746 38,745 40,744 40,743 40,741 39,740 37,739 " />
<polyline fill="none" vector-effect="non-scaling-stroke" points="32,743 31,741 30,740 29,739 27,739 26,741 25,742 25,743 " />
<polyline fill="none" vector-effect="non-scaling-stroke" points="25,743 25,744 27,745 28,746 30,746 31,745 32,743 " />
<polyline fill="none" vector-effect="non-scaling-stroke" points="40,734 39,734 " />
<polyline fill="none" vector-effect="non-scaling-stroke" points="28,729 27,729 " />
<polyline fill="none" vector-effect="non-scaling-stroke" points="30,723 28,722 27,723 26,724 25,725 25,727 26,728 27,729 " />
<polyline fill="none" vector-effect="non-scaling-stroke" points="30,723 40,729 " />
<polyline fill="none" vector-effect="non-scaling-stroke" points="40,729 40,722 " />
<polyline fill="none" vector-effect="non-scaling-stroke" points="25,710 25,717 " />
<polyline fill="none" vector-effect="non-scaling-stroke" points="25,717 32,717 " />
<polyline fill="none" vector-effect="non-scaling-stroke" points="32,717 32,714 " />
<polyline fill="none" vector-effect="non-scaling-stroke" points="35,710 34,711 32,712 32,714 " />
<polyline fill="none" vector-effect="non-scaling-stroke" points="35,710 37,710 " />
<polyline fill="none" vector-effect="non-scaling-stroke" points="40,714 40,712 39,711 37,710 " />
<polyline fill="none" vector-effect="non-scaling-stroke" points="40,714 40,717 " />
<polyline fill="none" vector-effect="non-scaling-stroke" points="28,704 25,704 " />
<polyline fill="none" vector-effect="non-scaling-stroke" points="28,700 25,699 " />
<polyline fill="none" vector-effect="non-scaling-stroke" points="877,1118 955,1118 " />
<polyline fill="none" vector-effect="non-scaling-stroke" points="955,1118 955,1095 " />
<polyline fill="none" vector-effect="non-scaling-stroke" points="955,1095 877,1095 " />
<polyline fill="none" vector-effect="non-scaling-stroke" points="877,1095 877,1118 " />
<polyline fill="none" vector-effect="non-scaling-stroke" points="712,1112 832,1112 " />
<polyline fill="none" vector-effect="non-scaling-stroke" points="832,1112 832,1101 " />
<polyline fill="none" vector-effect="non-scaling-stroke" points="832,1101 712,1101 " />
<polyline fill="none" vector-effect="non-scaling-stroke" points="712,1101 712,1112 " />
<polyline fill="none" vector-effect="non-scaling-stroke" points="552,1112 664,1112 " />
<polyline fill="none" vector-effect="non-scaling-stroke" points="664,1112 664,1101 " />
<polyline fill="none" vector-effect="non-scaling-stroke" points="664,1101 552,1101 " />
<polyline fill="none" vector-effect="non-scaling-stroke" points="552,1101 552,1112 " />
<polyline fill="none" vector-effect="non-scaling-stroke" points="327,1118 332,1118 " />
<polyline fill="none" vector-effect="non-scaling-stroke" points="332,1118 332,1124 " />
<polyline fill="none" vector-effect="non-scaling-stroke" points="332,1124 327,1124 " />
<polyline fill="none" vector-effect="non-scaling-stroke" points="327,1124 327,1118 " />
<polyline fill="none" vector-effect="non-scaling-stroke" points="324,460 335,460 " />
<polyline fill="none" vector-effect="non-scaling-stroke" points="335,460 335,526 " />
<polyline fill="none" vector-effect="non-scaling-stroke" points="335,526 324,526 " />
<polyline fill="none" vector-effect="non-scaling-stroke" points="324,526 324,460 " />
<polyline fill="none" vector-effect="non-scaling-stroke" points="318,541 341,541 " />
<polyline fill="none" vector-effect="non-scaling-stroke" points="341,541 341,687 " />
<polyline fill="none" vector-effect="non-scaling-stroke" points="341,687 318,687 " />
<polyline fill="none" vector-effect="non-scaling-stroke" points="318,687 318,541 " />
<polyline fill="none" vector-effect="non-scaling-stroke" points="914,1109 915,1109 " />
<polyline fill="none" vector-effect="non-scaling-stroke" points="915,1109 916,1109 916,1109 916,1108 " />
<polyline fill="none" vector-effect="non-scaling-stroke" points="916,1108 916,1106 " />
<polyline fill="none" vector-effect="non-scaling-stroke" points="916,1106 916,1106 916,1105 915,1105 " />
<polyline fill="none" vector-effect="non-scaling-stroke" points="915,1105 914,1105 " />
<polyline fill="none" vector-effect="non-scaling-stroke" points="914,1105 914,1109 " />
<polyline fill="none" vector-effect="non-scaling-stroke" points="917,1108 917,1109 918,1109 918,1109 919,1109 919,1109 919,1108 " />
<polyline fill="none" vector-effect="non-scaling-stroke" points="917,1108 917,1107 " />
<polyline fill="none" vector-effect="non-scaling-stroke" points="919,1107 919,1107 919,1107 918,1106 918,1107 918,1107 917,1107 " />
<polyline fill="none" vector-effect="non-scaling-stroke" points="919,1107 919,1108 " />
<polyline fill="none" vector-effect="non-scaling-stroke" points="920,1108 920,1109 921,1109 921,1109 922,1109 922,1109 922,1108 " />
<polyline fill="none" vector-effect="non-scaling-stroke" points="920,1108 920,1107 " />
<polyline fill="none" vector-effect="non-scaling-stroke" points="922,1107 922,1107 922,1107 921,1106 921,1107 920,1107 920,1107 " />
<polyline fill="none" vector-effect="non-scaling-stroke" points="922,1107 922,1108 " />
<polyline fill="none" vector-effect="non-scaling-stroke" points="923,1109 923,1106 " />
<polyline fill="none" vector-effect="non-scaling-stroke" points="923,1106 925,1106 " />
<polyline fill="none" vector-effect="non-scaling-stroke" points="925,1106 925,1107 " />
</g>

<g fill="#ffffff" fill-opacity="1" stroke="none" transform="matrix(1,0,0,1,0,0)"
font-family="Sans Serif" font-size="9" font-weight="400" font-style="normal" 
>
<circle cx="324" cy="1131" r="0.5"/>
</g>

<g fill="none" stroke="#ffffff" stroke-opacity="1" stroke-width="1" stroke-linecap="round" stroke-linejoin="round" transform="matrix(1,0,0,1,0,0)"
font-family="Sans Serif" font-size="9" font-weight="400" font-style="normal" 
>
<polyline fill="none" vector-effect="non-scaling-stroke" points="324,1131 324,1133 " />
<polyline fill="none" vector-effect="non-scaling-stroke" points="324,1133 323,1133 " />
<polyline fill="none" vector-effect="non-scaling-stroke" points="322,1132 322,1133 322,1133 323,1133 " />
<polyline fill="none" vector-effect="non-scaling-stroke" points="322,1132 322,1130 " />
<polyline fill="none" vector-effect="non-scaling-stroke" points="323,1129 323,1130 322,1130 322,1130 " />
<polyline fill="none" vector-effect="non-scaling-stroke" points="323,1129 324,1129 " />
<polyline fill="none" vector-effect="non-scaling-stroke" points="325,1131 325,1133 " />
<polyline fill="none" vector-effect="non-scaling-stroke" points="325,1133 326,1133 326,1133 326,1133 " />
<polyline fill="none" vector-effect="non-scaling-stroke" points="326,1133 327,1133 " />
<polyline fill="none" vector-effect="non-scaling-stroke" points="327,1133 327,1131 " />
<polyline fill="none" vector-effect="non-scaling-stroke" points="329,1133 329,1129 " />
<polyline fill="none" vector-effect="non-scaling-stroke" points="328,1131 330,1131 " />
<polyline fill="none" vector-effect="non-scaling-stroke" points="331,1133 331,1129 " />
<polyline fill="none" vector-effect="non-scaling-stroke" points="331,1131 332,1131 " />
<polyline fill="none" vector-effect="non-scaling-stroke" points="335,1133 334,1133 " />
<polyline fill="none" vector-effect="non-scaling-stroke" points="333,1133 334,1133 334,1133 334,1133 " />
<polyline fill="none" vector-effect="non-scaling-stroke" points="333,1133 333,1132 " />
<polyline fill="none" vector-effect="non-scaling-stroke" points="335,1132 335,1131 335,1131 334,1131 334,1131 334,1131 333,1131 333,1132 " />
</g>

<g fill="#ffffff" fill-opacity="1" stroke="none" transform="matrix(1,0,0,1,0,0)"
font-family="Sans Serif" font-size="9" font-weight="400" font-style="normal" 
>
<circle cx="335" cy="1132" r="0.5"/>
</g>

<g fill="none" stroke="#ffffff" stroke-opacity="1" stroke-width="1" stroke-linecap="round" stroke-linejoin="round" transform="matrix(1,0,0,1,0,0)"
font-family="Sans Serif" font-size="9" font-weight="400" font-style="normal" 
>
<polyline fill="none" vector-effect="non-scaling-stroke" points="335,1132 333,1132 " />
<polyline fill="none" vector-effect="non-scaling-stroke" points="336,1133 336,1131 " />
<polyline fill="none" vector-effect="non-scaling-stroke" points="336,1131 338,1131 " />
</g>

<g fill="#ffffff" fill-opacity="1" stroke="none" transform="matrix(1,0,0,1,0,0)"
font-family="Sans Serif" font-size="9" font-weight="400" font-style="normal" 
>
<circle cx="338" cy="1131" r="0.5"/>
</g>

<g fill="none" stroke="#ffffff" stroke-opacity="1" stroke-width="1" stroke-linecap="round" stroke-linejoin="round" transform="matrix(1,0,0,1,0,0)"
font-family="Sans Serif" font-size="9" font-weight="400" font-style="normal" 
>
<polyline fill="none" vector-effect="non-scaling-stroke" points="599,1104 600,1108 " />
<polyline fill="none" vector-effect="non-scaling-stroke" points="600,1108 601,1105 " />
<polyline fill="none" vector-effect="non-scaling-stroke" points="601,1105 602,1108 " />
<polyline fill="none" vector-effect="non-scaling-stroke" points="602,1108 602,1104 " />
<polyline fill="none" vector-effect="non-scaling-stroke" points="604,1108 604,1105 " />
</g>

<g fill="#ffffff" fill-opacity="1" stroke="none" transform="matrix(1,0,0,1,0,0)"
font-family="Sans Serif" font-size="9" font-weight="400" font-style="normal" 
>
<circle cx="604" cy="1104" r="0.5"/>
</g>

<g fill="none" stroke="#ffffff" stroke-opacity="1" stroke-width="1" stroke-linecap="round" stroke-linejoin="round" transform="matrix(1,0,0,1,0,0)"
font-family="Sans Serif" font-size="9" font-weight="400" font-style="normal" 
>
<polyline fill="none" vector-effect="non-scaling-stroke" points="605,1108 605,1105 " />
<polyline fill="none" vector-effect="non-scaling-stroke" points="605,1105 606,1105 " />
<polyline fill="none" vector-effect="non-scaling-stroke" points="607,1106 607,1106 606,1106 606,1105 " />
<polyline fill="none" vector-effect="non-scaling-stroke" points="607,1106 607,1108 " />
<polyline fill="none" vector-effect="non-scaling-stroke" points="610,1104 610,1108 " />
<polyline fill="none" vector-effect="non-scaling-stroke" points="610,1108 609,1108 " />
<polyline fill="none" vector-effect="non-scaling-stroke" points="608,1107 608,1108 608,1108 608,1108 609,1108 " />
<polyline fill="none" vector-effect="non-scaling-stroke" points="608,1107 608,1106 " />
<polyline fill="none" vector-effect="non-scaling-stroke" points="609,1105 608,1106 608,1106 608,1106 " />
<polyline fill="none" vector-effect="non-scaling-stroke" points="609,1105 610,1105 " />
<polyline fill="none" vector-effect="non-scaling-stroke" points="611,1107 611,1108 611,1108 612,1108 612,1108 612,1108 613,1107 " />
<polyline fill="none" vector-effect="non-scaling-stroke" points="611,1107 611,1106 " />
<polyline fill="none" vector-effect="non-scaling-stroke" points="613,1106 612,1106 612,1106 612,1105 611,1106 611,1106 611,1106 " />
<polyline fill="none" vector-effect="non-scaling-stroke" points="613,1106 613,1107 " />
<polyline fill="none" vector-effect="non-scaling-stroke" points="614,1105 614,1108 " />
<polyline fill="none" vector-effect="non-scaling-stroke" points="614,1108 615,1106 " />
<polyline fill="none" vector-effect="non-scaling-stroke" points="615,1106 616,1108 " />
<polyline fill="none" vector-effect="non-scaling-stroke" points="616,1108 616,1105 " />
<polyline fill="none" vector-effect="non-scaling-stroke" points="765,1104 766,1108 " />
<polyline fill="none" vector-effect="non-scaling-stroke" points="766,1108 767,1105 " />
<polyline fill="none" vector-effect="non-scaling-stroke" points="767,1105 768,1108 " />
<polyline fill="none" vector-effect="non-scaling-stroke" points="768,1108 768,1104 " />
<polyline fill="none" vector-effect="non-scaling-stroke" points="770,1108 770,1105 " />
</g>

<g fill="#ffffff" fill-opacity="1" stroke="none" transform="matrix(1,0,0,1,0,0)"
font-family="Sans Serif" font-size="9" font-weight="400" font-style="normal" 
>
<circle cx="770" cy="1104" r="0.5"/>
</g>

<g fill="none" stroke="#ffffff" stroke-opacity="1" stroke-width="1" stroke-linecap="round" stroke-linejoin="round" transform="matrix(1,0,0,1,0,0)"
font-family="Sans Serif" font-size="9" font-weight="400" font-style="normal" 
>
<polyline fill="none" vector-effect="non-scaling-stroke" points="771,1108 771,1105 " />
<polyline fill="none" vector-effect="non-scaling-stroke" points="771,1105 772,1105 " />
<polyline fill="none" vector-effect="non-scaling-stroke" points="773,1106 773,1106 772,1106 772,1105 " />
<polyline fill="none" vector-effect="non-scaling-stroke" points="773,1106 773,1108 " />
<polyline fill="none" vector-effect="non-scaling-stroke" points="776,1104 776,1108 " />
<polyline fill="none" vector-effect="non-scaling-stroke" points="776,1108 775,1108 " />
<polyline fill="none" vector-effect="non-scaling-stroke" points="774,1107 774,1108 774,1108 775,1108 " />
<polyline fill="none" vector-effect="non-scaling-stroke" points="774,1107 774,1106 " />
<polyline fill="none" vector-effect="non-scaling-stroke" points="775,1105 774,1106 774,1106 774,1106 " />
<polyline fill="none" vector-effect="non-scaling-stroke" points="775,1105 776,1105 " />
<polyline fill="none" vector-effect="non-scaling-stroke" points="777,1107 777,1108 777,1108 778,1108 778,1108 778,1108 779,1107 " />
<polyline fill="none" vector-effect="non-scaling-stroke" points="777,1107 777,1106 " />
<polyline fill="none" vector-effect="non-scaling-stroke" points="779,1106 778,1106 778,1106 778,1105 777,1106 777,1106 777,1106 " />
<polyline fill="none" vector-effect="non-scaling-stroke" points="779,1106 779,1107 " />
<polyline fill="none" vector-effect="non-scaling-stroke" points="780,1105 780,1108 " />
<polyline fill="none" vector-effect="non-scaling-stroke" points="780,1108 781,1106 " />
<polyline fill="none" vector-effect="non-scaling-stroke" points="781,1106 782,1108 " />
<polyline fill="none" vector-effect="non-scaling-stroke" points="782,1108 782,1105 " />
<polyline fill="none" vector-effect="non-scaling-stroke" points="328,501 331,500 " />
<polyline fill="none" vector-effect="non-scaling-stroke" points="331,500 329,499 " />
<polyline fill="none" vector-effect="non-scaling-stroke" points="329,499 331,498 " />
<polyline fill="none" vector-effect="non-scaling-stroke" points="331,498 328,497 " />
<polyline fill="none" vector-effect="non-scaling-stroke" points="331,496 329,496 " />
</g>

<g fill="#ffffff" fill-opacity="1" stroke="none" transform="matrix(1,0,0,1,0,0)"
font-family="Sans Serif" font-size="9" font-weight="400" font-style="normal" 
>
<circle cx="328" cy="496" r="0.5"/>
</g>

<g fill="none" stroke="#ffffff" stroke-opacity="1" stroke-width="1" stroke-linecap="round" stroke-linejoin="round" transform="matrix(1,0,0,1,0,0)"
font-family="Sans Serif" font-size="9" font-weight="400" font-style="normal" 
>
<polyline fill="none" vector-effect="non-scaling-stroke" points="331,495 329,495 " />
<polyline fill="none" vector-effect="non-scaling-stroke" points="329,495 329,494 " />
<polyline fill="none" vector-effect="non-scaling-stroke" points="329,493 329,493 329,493 329,494 " />
<polyline fill="none" vector-effect="non-scaling-stroke" points="329,493 331,493 " />
<polyline fill="none" vector-effect="non-scaling-stroke" points="328,490 331,490 " />
<polyline fill="none" vector-effect="non-scaling-stroke" points="331,490 331,491 " />
<polyline fill="none" vector-effect="non-scaling-stroke" points="331,492 331,492 331,492 331,491 " />
<polyline fill="none" vector-effect="non-scaling-stroke" points="331,492 329,492 " />
<polyline fill="none" vector-effect="non-scaling-stroke" points="329,491 329,492 329,492 329,492 " />
<polyline fill="none" vector-effect="non-scaling-stroke" points="329,491 329,490 " />
<polyline fill="none" vector-effect="non-scaling-stroke" points="331,489 331,489 331,489 331,488 331,488 331,487 331,487 " />
<polyline fill="none" vector-effect="non-scaling-stroke" points="331,489 330,489 " />
<polyline fill="none" vector-effect="non-scaling-stroke" points="330,487 329,487 329,488 329,488 329,488 329,489 330,489 " />
<polyline fill="none" vector-effect="non-scaling-stroke" points="330,487 331,487 " />
<polyline fill="none" vector-effect="non-scaling-stroke" points="329,486 331,485 " />
<polyline fill="none" vector-effect="non-scaling-stroke" points="331,485 330,485 " />
<polyline fill="none" vector-effect="non-scaling-stroke" points="330,485 331,484 " />
<polyline fill="none" vector-effect="non-scaling-stroke" points="331,484 329,483 " />
<polyline fill="none" vector-effect="non-scaling-stroke" points="332,621 332,620 " />
<polyline fill="none" vector-effect="non-scaling-stroke" points="332,620 332,619 331,619 331,619 " />
<polyline fill="none" vector-effect="non-scaling-stroke" points="331,619 329,619 " />
<polyline fill="none" vector-effect="non-scaling-stroke" points="329,619 328,619 328,619 328,620 " />
<polyline fill="none" vector-effect="non-scaling-stroke" points="328,620 328,621 " />
<polyline fill="none" vector-effect="non-scaling-stroke" points="328,621 332,621 " />
<polyline fill="none" vector-effect="non-scaling-stroke" points="331,617 331,617 332,617 332,617 332,616 331,616 331,616 " />
<polyline fill="none" vector-effect="non-scaling-stroke" points="331,617 330,617 " />
<polyline fill="none" vector-effect="non-scaling-stroke" points="330,616 330,616 329,616 329,617 329,617 330,617 330,617 " />
<polyline fill="none" vector-effect="non-scaling-stroke" points="330,616 331,616 " />
<polyline fill="none" vector-effect="non-scaling-stroke" points="331,614 331,614 332,614 332,614 332,613 331,613 331,613 " />
<polyline fill="none" vector-effect="non-scaling-stroke" points="331,614 330,614 " />
<polyline fill="none" vector-effect="non-scaling-stroke" points="330,613 330,613 329,613 329,614 329,614 330,614 330,614 " />
<polyline fill="none" vector-effect="non-scaling-stroke" points="330,613 331,613 " />
<polyline fill="none" vector-effect="non-scaling-stroke" points="332,612 329,612 " />
<polyline fill="none" vector-effect="non-scaling-stroke" points="329,612 329,610 " />
<polyline fill="none" vector-effect="non-scaling-stroke" points="329,610 330,610 " />
<polyline fill="none" vector-effect="non-scaling-stroke" points="328,608 328,609 " />
<polyline fill="none" vector-effect="non-scaling-stroke" points="329,608 329,607 328,607 328,607 328,608 " />
<polyline fill="none" vector-effect="non-scaling-stroke" points="329,608 330,608 " />
</g>

<g fill="#ffffff" fill-opacity="1" stroke="none" transform="matrix(1,0,0,1,0,0)"
font-family="Sans Serif" font-size="9" font-weight="400" font-style="normal" 
>
<circle cx="330" cy="608" r="0.5"/>
</g>

<g fill="none" stroke="#ffffff" stroke-opacity="1" stroke-width="1" stroke-linecap="round" stroke-linejoin="round" transform="matrix(1,0,0,1,0,0)"
font-family="Sans Serif" font-size="9" font-weight="400" font-style="normal" 
>
<polyline fill="none" vector-effect="non-scaling-stroke" points="330,608 331,608 " />
</g>

<g fill="#ffffff" fill-opacity="1" stroke="none" transform="matrix(1,0,0,1,0,0)"
font-family="Sans Serif" font-size="9" font-weight="400" font-style="normal" 
>
<circle cx="332" cy="608" r="0.5"/>
</g>

<g fill="none" stroke="#ffffff" stroke-opacity="1" stroke-width="1" stroke-linecap="round" stroke-linejoin="round" transform="matrix(1,0,0,1,0,0)"
font-family="Sans Serif" font-size="9" font-weight="400" font-style="normal" 
>
<polyline fill="none" vector-effect="non-scaling-stroke" points="986,1046 997,1046 " />
<polyline fill="none" vector-effect="non-scaling-stroke" points="997,1046 997,932 " />
<polyline fill="none" vector-effect="non-scaling-stroke" points="997,932 986,932 " />
<polyline fill="none" vector-effect="non-scaling-stroke" points="986,932 986,1046 " />
<polyline fill="none" vector-effect="non-scaling-stroke" points="990,996 993,995 " />
<polyline fill="none" vector-effect="non-scaling-stroke" points="993,995 991,995 " />
<polyline fill="none" vector-effect="non-scaling-stroke" points="991,995 993,994 " />
<polyline fill="none" vector-effect="non-scaling-stroke" points="993,994 990,993 " />
<polyline fill="none" vector-effect="non-scaling-stroke" points="993,992 991,992 " />
</g>

<g fill="#ffffff" fill-opacity="1" stroke="none" transform="matrix(1,0,0,1,0,0)"
font-family="Sans Serif" font-size="9" font-weight="400" font-style="normal" 
>
<circle cx="990" cy="992" r="0.5"/>
</g>

<g fill="none" stroke="#ffffff" stroke-opacity="1" stroke-width="1" stroke-linecap="round" stroke-linejoin="round" transform="matrix(1,0,0,1,0,0)"
font-family="Sans Serif" font-size="9" font-weight="400" font-style="normal" 
>
<polyline fill="none" vector-effect="non-scaling-stroke" points="993,990 991,990 " />
<polyline fill="none" vector-effect="non-scaling-stroke" points="991,990 991,989 " />
<polyline fill="none" vector-effect="non-scaling-stroke" points="992,989 991,989 991,989 991,989 " />
<polyline fill="none" vector-effect="non-scaling-stroke" points="992,989 993,989 " />
<polyline fill="none" vector-effect="non-scaling-stroke" points="990,986 993,986 " />
<polyline fill="none" vector-effect="non-scaling-stroke" points="993,986 993,987 " />
<polyline fill="none" vector-effect="non-scaling-stroke" points="993,987 993,987 993,987 993,987 " />
<polyline fill="none" vector-effect="non-scaling-stroke" points="993,987 992,987 " />
<polyline fill="none" vector-effect="non-scaling-stroke" points="991,987 991,987 991,987 992,987 " />
<polyline fill="none" vector-effect="non-scaling-stroke" points="991,987 991,986 " />
<polyline fill="none" vector-effect="non-scaling-stroke" points="993,984 993,984 993,984 993,984 993,983 993,983 993,983 " />
<polyline fill="none" vector-effect="non-scaling-stroke" points="993,984 992,984 " />
<polyline fill="none" vector-effect="non-scaling-stroke" points="992,983 991,983 991,983 991,984 991,984 991,984 992,984 " />
<polyline fill="none" vector-effect="non-scaling-stroke" points="992,983 993,983 " />
<polyline fill="none" vector-effect="non-scaling-stroke" points="991,982 993,981 " />
<polyline fill="none" vector-effect="non-scaling-stroke" points="993,981 992,980 " />
<polyline fill="none" vector-effect="non-scaling-stroke" points="992,980 993,980 " />
<polyline fill="none" vector-effect="non-scaling-stroke" points="993,980 991,979 " />
<polyline fill="none" vector-effect="non-scaling-stroke" points="283,98 295,98 " />
<polyline fill="none" vector-effect="non-scaling-stroke" points="289,98 289,121 " />
<polyline fill="none" vector-effect="non-scaling-stroke" points="303,121 303,98 " />
<polyline fill="none" vector-effect="non-scaling-stroke" points="303,106 309,106 " />
<polyline fill="none" vector-effect="non-scaling-stroke" points="313,110 313,108 311,106 310,106 309,106 " />
<polyline fill="none" vector-effect="non-scaling-stroke" points="313,110 313,121 " />
<polyline fill="none" vector-effect="non-scaling-stroke" points="321,121 321,106 " />
<polyline fill="none" vector-effect="non-scaling-stroke" points="321,99 321,98 " />
<polyline fill="none" vector-effect="non-scaling-stroke" points="328,120 330,120 332,121 334,121 335,121 " />
<polyline fill="none" vector-effect="non-scaling-stroke" points="335,121 337,121 338,120 339,118 338,116 337,115 " />
<polyline fill="none" vector-effect="non-scaling-stroke" points="337,115 330,112 " />
<polyline fill="none" vector-effect="non-scaling-stroke" points="332,106 330,106 329,107 328,109 329,110 330,111 330,112 " />
<polyline fill="none" vector-effect="non-scaling-stroke" points="337,107 335,106 334,106 332,106 " />
<polyline fill="none" vector-effect="non-scaling-stroke" points="373,98 373,121 " />
<polyline fill="none" vector-effect="non-scaling-stroke" points="373,121 367,121 " />
<polyline fill="none" vector-effect="non-scaling-stroke" points="363,117 364,119 365,120 367,121 " />
<polyline fill="none" vector-effect="non-scaling-stroke" points="363,117 363,110 " />
<polyline fill="none" vector-effect="non-scaling-stroke" points="367,106 365,106 364,108 363,109 363,110 " />
<polyline fill="none" vector-effect="non-scaling-stroke" points="367,106 373,106 " />
<polyline fill="none" vector-effect="non-scaling-stroke" points="381,121 381,106 " />
<polyline fill="none" vector-effect="non-scaling-stroke" points="381,106 389,106 " />
<polyline fill="none" vector-effect="non-scaling-stroke" points="389,106 389,108 " />
<polyline fill="none" vector-effect="non-scaling-stroke" points="398,106 403,106 " />
<polyline fill="none" vector-effect="non-scaling-stroke" points="406,110 406,108 405,106 403,106 " />
<polyline fill="none" vector-effect="non-scaling-stroke" points="406,110 406,121 " />
<polyline fill="none" vector-effect="non-scaling-stroke" points="406,121 400,121 " />
<polyline fill="none" vector-effect="non-scaling-stroke" points="400,113 398,114 397,115 396,117 397,119 398,120 400,121 " />
<polyline fill="none" vector-effect="non-scaling-stroke" points="400,113 406,113 " />
<polyline fill="none" vector-effect="non-scaling-stroke" points="414,106 418,121 " />
<polyline fill="none" vector-effect="non-scaling-stroke" points="418,121 422,111 " />
<polyline fill="none" vector-effect="non-scaling-stroke" points="422,111 426,121 " />
<polyline fill="none" vector-effect="non-scaling-stroke" points="426,121 429,106 " />
<polyline fill="none" vector-effect="non-scaling-stroke" points="437,121 437,106 " />
<polyline fill="none" vector-effect="non-scaling-stroke" points="437,99 437,98 " />
<polyline fill="none" vector-effect="non-scaling-stroke" points="445,121 445,106 " />
<polyline fill="none" vector-effect="non-scaling-stroke" points="445,106 451,106 " />
<polyline fill="none" vector-effect="non-scaling-stroke" points="455,110 454,108 453,106 451,106 " />
<polyline fill="none" vector-effect="non-scaling-stroke" points="455,110 455,121 " />
<polyline fill="none" vector-effect="non-scaling-stroke" points="464,129 469,129 " />
<polyline fill="none" vector-effect="non-scaling-stroke" points="469,129 470,128 472,127 472,125 " />
<polyline fill="none" vector-effect="non-scaling-stroke" points="472,125 472,106 " />
<polyline fill="none" vector-effect="non-scaling-stroke" points="472,106 466,106 " />
<polyline fill="none" vector-effect="non-scaling-stroke" points="466,106 464,106 463,108 462,109 462,110 " />
<polyline fill="none" vector-effect="non-scaling-stroke" points="462,110 462,117 " />
<polyline fill="none" vector-effect="non-scaling-stroke" points="462,117 463,119 464,120 466,121 " />
<polyline fill="none" vector-effect="non-scaling-stroke" points="466,121 472,121 " />
<polyline fill="none" vector-effect="non-scaling-stroke" points="497,106 497,117 " />
<polyline fill="none" vector-effect="non-scaling-stroke" points="497,117 498,119 499,120 501,121 " />
<polyline fill="none" vector-effect="non-scaling-stroke" points="501,121 507,121 " />
<polyline fill="none" vector-effect="non-scaling-stroke" points="507,121 507,106 " />
<polyline fill="none" vector-effect="non-scaling-stroke" points="515,120 517,120 519,121 521,121 522,121 " />
<polyline fill="none" vector-effect="non-scaling-stroke" points="522,121 523,121 525,120 525,118 525,116 524,115 523,115 " />
<polyline fill="none" vector-effect="non-scaling-stroke" points="523,115 517,112 " />
<polyline fill="none" vector-effect="non-scaling-stroke" points="518,106 517,106 515,107 515,109 515,110 516,111 517,112 " />
<polyline fill="none" vector-effect="non-scaling-stroke" points="524,107 522,106 520,106 518,106 " />
<polyline fill="none" vector-effect="non-scaling-stroke" points="543,121 536,121 " />
<polyline fill="none" vector-effect="non-scaling-stroke" points="533,117 533,119 534,120 536,121 " />
<polyline fill="none" vector-effect="non-scaling-stroke" points="533,117 533,111 " />
<polyline fill="none" vector-effect="non-scaling-stroke" points="543,111 542,109 541,107 540,106 538,106 536,106 534,107 533,109 533,111 " />
<polyline fill="none" vector-effect="non-scaling-stroke" points="543,111 543,113 " />
<polyline fill="none" vector-effect="non-scaling-stroke" points="543,113 533,113 " />
<polyline fill="none" vector-effect="non-scaling-stroke" points="550,120 552,120 554,121 556,121 557,121 " />
<polyline fill="none" vector-effect="non-scaling-stroke" points="557,121 559,121 560,120 561,118 560,116 559,115 " />
<polyline fill="none" vector-effect="non-scaling-stroke" points="559,115 552,112 " />
<polyline fill="none" vector-effect="non-scaling-stroke" points="554,106 552,106 551,107 550,109 551,110 552,111 552,112 " />
<polyline fill="none" vector-effect="non-scaling-stroke" points="559,107 557,106 556,106 554,106 " />
<polyline fill="none" vector-effect="non-scaling-stroke" points="585,121 585,106 " />
<polyline fill="none" vector-effect="non-scaling-stroke" points="585,99 585,98 " />
<polyline fill="none" vector-effect="non-scaling-stroke" points="593,121 593,106 " />
<polyline fill="none" vector-effect="non-scaling-stroke" points="593,106 599,106 " />
<polyline fill="none" vector-effect="non-scaling-stroke" points="603,110 603,108 601,106 600,106 599,106 " />
<polyline fill="none" vector-effect="non-scaling-stroke" points="603,110 603,121 " />
<polyline fill="none" vector-effect="non-scaling-stroke" points="618,106 615,106 " />
<polyline fill="none" vector-effect="non-scaling-stroke" points="615,106 613,106 611,108 611,109 611,110 " />
<polyline fill="none" vector-effect="non-scaling-stroke" points="611,110 611,117 " />
<polyline fill="none" vector-effect="non-scaling-stroke" points="611,117 611,119 612,120 614,121 615,121 " />
<polyline fill="none" vector-effect="non-scaling-stroke" points="615,121 618,121 " />
<polyline fill="none" vector-effect="non-scaling-stroke" points="626,121 626,98 " />
<polyline fill="none" vector-effect="non-scaling-stroke" points="626,106 632,106 " />
<polyline fill="none" vector-effect="non-scaling-stroke" points="636,110 636,108 634,106 633,106 632,106 " />
<polyline fill="none" vector-effect="non-scaling-stroke" points="636,110 636,121 " />
<polyline fill="none" vector-effect="non-scaling-stroke" points="654,121 647,121 " />
<polyline fill="none" vector-effect="non-scaling-stroke" points="644,117 644,119 645,120 647,121 " />
<polyline fill="none" vector-effect="non-scaling-stroke" points="644,117 644,111 " />
<polyline fill="none" vector-effect="non-scaling-stroke" points="654,111 653,109 652,107 651,106 649,106 647,106 645,107 644,109 644,111 " />
<polyline fill="none" vector-effect="non-scaling-stroke" points="654,111 654,113 " />
<polyline fill="none" vector-effect="non-scaling-stroke" points="654,113 644,113 " />
<polyline fill="none" vector-effect="non-scaling-stroke" points="661,120 663,120 665,121 667,121 668,121 " />
<polyline fill="none" vector-effect="non-scaling-stroke" points="668,121 670,121 671,120 672,118 671,116 670,115 " />
<polyline fill="none" vector-effect="non-scaling-stroke" points="670,115 663,112 " />
<polyline fill="none" vector-effect="non-scaling-stroke" points="665,106 663,106 662,107 661,109 662,110 663,111 663,112 " />
<polyline fill="none" vector-effect="non-scaling-stroke" points="670,107 668,106 666,106 665,106 " />
<polyline fill="none" vector-effect="non-scaling-stroke" points="699,121 699,102 " />
<polyline fill="none" vector-effect="non-scaling-stroke" points="703,98 701,99 699,100 699,102 " />
<polyline fill="none" vector-effect="non-scaling-stroke" points="703,98 704,98 " />
<polyline fill="none" vector-effect="non-scaling-stroke" points="696,106 704,106 " />
<polyline fill="none" vector-effect="non-scaling-stroke" points="712,116 712,118 713,119 715,121 717,121 719,121 720,119 721,118 722,116 " />
<polyline fill="none" vector-effect="non-scaling-stroke" points="712,116 712,111 " />
<polyline fill="none" vector-effect="non-scaling-stroke" points="722,111 721,109 720,107 719,106 717,106 715,106 713,107 712,109 712,111 " />
<polyline fill="none" vector-effect="non-scaling-stroke" points="722,111 722,116 " />
<polyline fill="none" vector-effect="non-scaling-stroke" points="729,121 729,106 " />
<polyline fill="none" vector-effect="non-scaling-stroke" points="729,106 737,106 " />
<polyline fill="none" vector-effect="non-scaling-stroke" points="737,106 737,108 " />
<polyline fill="none" vector-effect="non-scaling-stroke" points="769,121 769,106 " />
<polyline fill="none" vector-effect="non-scaling-stroke" points="762,121 762,106 " />
<polyline fill="none" vector-effect="non-scaling-stroke" points="762,106 773,106 " />
<polyline fill="none" vector-effect="non-scaling-stroke" points="777,110 776,108 775,106 773,106 " />
<polyline fill="none" vector-effect="non-scaling-stroke" points="777,110 777,121 " />
<polyline fill="none" vector-effect="non-scaling-stroke" points="795,121 788,121 " />
<polyline fill="none" vector-effect="non-scaling-stroke" points="784,117 785,119 786,120 788,121 " />
<polyline fill="none" vector-effect="non-scaling-stroke" points="784,117 784,111 " />
<polyline fill="none" vector-effect="non-scaling-stroke" points="795,111 794,109 793,107 791,106 790,106 788,106 786,107 785,109 784,111 " />
<polyline fill="none" vector-effect="non-scaling-stroke" points="795,111 795,113 " />
<polyline fill="none" vector-effect="non-scaling-stroke" points="795,113 784,113 " />
<polyline fill="none" vector-effect="non-scaling-stroke" points="804,106 809,106 " />
<polyline fill="none" vector-effect="non-scaling-stroke" points="812,110 812,108 811,106 809,106 " />
<polyline fill="none" vector-effect="non-scaling-stroke" points="812,110 812,121 " />
<polyline fill="none" vector-effect="non-scaling-stroke" points="812,121 806,121 " />
<polyline fill="none" vector-effect="non-scaling-stroke" points="806,113 804,114 803,115 802,117 803,119 804,120 806,121 " />
<polyline fill="none" vector-effect="non-scaling-stroke" points="806,113 812,113 " />
<polyline fill="none" vector-effect="non-scaling-stroke" points="820,120 822,120 824,121 826,121 827,121 " />
<polyline fill="none" vector-effect="non-scaling-stroke" points="827,121 828,121 830,120 830,118 830,116 829,115 828,115 " />
<polyline fill="none" vector-effect="non-scaling-stroke" points="828,115 822,112 " />
<polyline fill="none" vector-effect="non-scaling-stroke" points="823,106 822,106 821,107 820,109 820,110 821,111 822,112 " />
<polyline fill="none" vector-effect="non-scaling-stroke" points="829,107 827,106 825,106 823,106 " />
<polyline fill="none" vector-effect="non-scaling-stroke" points="838,106 838,117 " />
<polyline fill="none" vector-effect="non-scaling-stroke" points="838,117 838,119 840,120 841,121 842,121 " />
<polyline fill="none" vector-effect="non-scaling-stroke" points="842,121 848,121 " />
<polyline fill="none" vector-effect="non-scaling-stroke" points="848,121 848,106 " />
<polyline fill="none" vector-effect="non-scaling-stroke" points="856,121 856,106 " />
<polyline fill="none" vector-effect="non-scaling-stroke" points="856,106 863,106 " />
<polyline fill="none" vector-effect="non-scaling-stroke" points="863,106 863,108 " />
<polyline fill="none" vector-effect="non-scaling-stroke" points="881,121 875,121 " />
<polyline fill="none" vector-effect="non-scaling-stroke" points="871,117 871,119 872,120 874,121 875,121 " />
<polyline fill="none" vector-effect="non-scaling-stroke" points="871,117 871,111 " />
<polyline fill="none" vector-effect="non-scaling-stroke" points="881,111 881,109 879,107 878,106 876,106 874,106 872,107 871,109 871,111 " />
<polyline fill="none" vector-effect="non-scaling-stroke" points="881,111 881,113 " />
<polyline fill="none" vector-effect="non-scaling-stroke" points="881,113 871,113 " />
<polyline fill="none" vector-effect="non-scaling-stroke" points="896,121 896,106 " />
<polyline fill="none" vector-effect="non-scaling-stroke" points="889,121 889,106 " />
<polyline fill="none" vector-effect="non-scaling-stroke" points="889,106 900,106 " />
<polyline fill="none" vector-effect="non-scaling-stroke" points="904,110 903,108 902,106 900,106 " />
<polyline fill="none" vector-effect="non-scaling-stroke" points="904,110 904,121 " />
<polyline fill="none" vector-effect="non-scaling-stroke" points="921,121 915,121 " />
<polyline fill="none" vector-effect="non-scaling-stroke" points="911,117 912,119 913,120 915,121 " />
<polyline fill="none" vector-effect="non-scaling-stroke" points="911,117 911,111 " />
<polyline fill="none" vector-effect="non-scaling-stroke" points="921,111 921,109 920,107 918,106 916,106 914,106 913,107 912,109 911,111 " />
<polyline fill="none" vector-effect="non-scaling-stroke" points="921,111 921,113 " />
<polyline fill="none" vector-effect="non-scaling-stroke" points="921,113 911,113 " />
<polyline fill="none" vector-effect="non-scaling-stroke" points="929,121 929,106 " />
<polyline fill="none" vector-effect="non-scaling-stroke" points="929,106 935,106 " />
<polyline fill="none" vector-effect="non-scaling-stroke" points="939,110 939,108 937,106 936,106 935,106 " />
<polyline fill="none" vector-effect="non-scaling-stroke" points="939,110 939,121 " />
<polyline fill="none" vector-effect="non-scaling-stroke" points="949,121 949,98 " />
<polyline fill="none" vector-effect="non-scaling-stroke" points="947,106 954,106 " />
<polyline fill="none" vector-effect="non-scaling-stroke" points="962,121 962,120 " />
</g>
</g>
</svg>
